<svg xmlns="http://www.w3.org/2000/svg" xmlns:xlink="http://www.w3.org/1999/xlink" version="1.1" x="0px" y="0px" width="100px" height="100px" viewBox="0 0 100 100" enable-background="new 0 0 100 100" xml:space="preserve">
<g id="Captions">
</g>
<g id="Your_Icon">
	<path fill-rule="evenodd" clip-rule="evenodd" fill="#000000" d="M80.1,78.79L56.7,41.93L33.55,78.79H80.1z M91.88,28.12H8.12   v63.76h83.76V28.12z M56.7,38L84,81H29.65l9.6-15.25L56.7,38z M16,81l17.3-29.24l7.2,11.99l-1.25,2L33.3,55.689L19.9,78.79h11.14   L29.65,81H16z M93.88,26.12v67.76H6.12V26.12H93.88z M84.91,19.57H15.08l31.1-15.65c-0.02,0.14-0.03,0.28-0.03,0.43   c0,2.4,1.95,4.35,4.35,4.35c2.37,0,4.3-1.9,4.35-4.27L84.91,19.57z M0,19.58V100h100V19.58l-12.859-0.01L54.76,3.5   C54.37,1.51,52.609,0,50.5,0c-1.9,0-3.52,1.22-4.11,2.92L12.85,19.57L0,19.58z"/>
</g>
</svg>