<svg xmlns="http://www.w3.org/2000/svg" xmlns:xlink="http://www.w3.org/1999/xlink" version="1.1" id="Layer_1" x="0px" y="0px" width="97.191px" height="100px" viewBox="0 0 97.191 100" enable-background="new 0 0 97.191 100" xml:space="preserve">
<path d="M36.724,42.956c-1.666,0-3.165-0.914-4.458-2.719l-0.259-0.362V34.13h9.297v6.202l-0.301,0.379  C40.824,40.94,39.162,42.956,36.724,42.956 M34.78,38.963c0.654,0.81,1.307,1.219,1.943,1.219c0.705,0,1.395-0.493,1.807-0.876  v-2.402h-3.75V38.963z"/>
<path d="M77.062,32.734c-1.702-2.642-0.762-6.994-4.113-11.884c-1.868-2.725,1.12-2.015,2.056-0.609  c1.219,1.828,3.146,7.887,3.581,10.666C78.678,31.491,77.993,34.18,77.062,32.734"/>
<path d="M79.058,27.347c-1.396-2.815-0.268-6.323-3.052-11.556c-1.549-2.917,1.338-1.878,2.113-0.375  c1.005,1.953,2.242,8.189,2.364,10.999C80.511,27.007,79.821,28.888,79.058,27.347"/>
<path d="M90.721,5.383c-0.704-6.611-6.321-5.68-9.368-3.966c-4.325-3.522-7.155,0.288-8.003,3.135  c-5.248,0.023-4.966,3.969-3.858,6.326c-7.861,3.795-1.604,9.867,0.946,10.615c2.5,0.731,1.563-2.603,0.087-3.036  c-1.476-0.433-3.212-3.123-0.434-5.558c0.192-0.168,0.355-0.324,0.504-0.47c1.386,1.086,1.832-1.422,0.977-2.214  c-0.871-0.806-1.139-3.22,1.51-4.005c0,0.031-0.001,0.063,0.002,0.093c0.145,2.431,2.785,0.55,2.701-0.888  c-0.078-1.273,1.354-3.288,3.792-2.547c-1.382,1.95,2.108,2.458,3.18,1.236c1.111-1.271,4.599-1.763,5.746,2.13  c1.143,3.893,2.26,1.921,2.284,1.266c0.005-0.119,0-0.228,0.003-0.344c2.733,0.791,2.506,3.303,1.616,4.162  c-0.097,0.095-0.176,0.214-0.238,0.344c-0.455-0.268-0.968-0.528-1.562-0.774c-0.512-0.214-2.435-0.058,0.165,2.217  c2.598,2.274,0.974,4.792-0.406,5.197c-1.381,0.405-2.259,3.524,0.079,2.84c1.993-0.583,6.399-4.638,3.523-8.026  C95.441,11.111,96.874,5.458,90.721,5.383"/>
<path d="M54.15,13.65c-0.201-1.404-1.174-2.376-2.483-3.059c-2.252-3.782-6.808-5.564-11.309-3.951  c-2.535,0.907-4.276,2.438-5.274,4.287c-1.012,0.657-1.736,1.536-1.905,2.723c-0.289,2.027,0.509,4.273,1.889,5.837  c2.095,4.359,7.626,6.221,11.783,4.87c2.673-0.872,4.553-2.773,5.506-5.081C53.673,17.719,54.426,15.579,54.15,13.65 M49.059,18.466  c-1.696,0.816-3.387-0.411-4.505-1.589c-0.26-0.276-0.623-0.432-1.005-0.432c-0.381,0-0.743,0.156-1.005,0.432  c-1.105,1.164-2.76,2.386-4.366,1.612c-1.545-0.746-2.464-2.964-2.253-4.449c0.187-1.313,4.03-2.15,7.771-2.202  c3.723,0.058,7.522,0.891,7.707,2.202C51.611,15.495,50.653,17.696,49.059,18.466"/>
<path d="M64.161,9.642c-2.331,0-4.224-1.895-4.224-4.224s1.893-4.224,4.224-4.224c2.328,0,4.223,1.895,4.223,4.224  S66.489,9.642,64.161,9.642 M64.161,3.968c-0.801,0-1.45,0.65-1.45,1.45s0.649,1.45,1.45,1.45c0.8,0,1.449-0.65,1.449-1.45  S64.961,3.968,64.161,3.968"/>
<path d="M86.188,23.403c-0.077,0-0.145,0.019-0.221,0.022c0.365-0.837,0.826-1.697,1.428-2.576c1.867-2.725-1.122-2.015-2.056-0.609  c-0.527,0.788-1.182,2.362-1.793,4.12c-0.956,0.774-1.582,1.943-1.582,3.268c0,0.447,0.089,0.869,0.217,1.274  c-0.188,0.758-0.336,1.447-0.423,2.004c-0.094,0.586,0.591,3.274,1.522,1.828c0.298-0.46,0.509-0.975,0.683-1.533  c0.648,0.405,1.406,0.648,2.225,0.648c2.328,0,4.223-1.895,4.223-4.222C90.411,25.298,88.517,23.403,86.188,23.403 M86.188,29.076  c-0.801,0-1.45-0.65-1.45-1.449c0-0.8,0.649-1.451,1.45-1.451s1.449,0.65,1.449,1.451C87.638,28.426,86.989,29.076,86.188,29.076"/>
<path d="M84.272,6.594c-2.329,0-4.223,1.895-4.223,4.224c0,1.56,0.858,2.911,2.121,3.64c-0.482,2.416-0.77,5.363-0.77,7.14  c-0.003,1.238,0.938,2.41,1.404,1.25c0.885-2.201,0.272-4.566,1.114-7.842c0.117,0.009,0.23,0.035,0.353,0.035  c2.329,0,4.223-1.895,4.223-4.223C88.495,8.488,86.602,6.594,84.272,6.594 M83.008,11.488c-0.108-0.203-0.185-0.424-0.185-0.67  c0-0.801,0.647-1.45,1.449-1.45c0.238,0,0.458,0.073,0.655,0.177c0.406,0.21,0.683,0.6,0.753,1.069  c0.011,0.07,0.041,0.131,0.041,0.204c0,0.509-0.279,0.936-0.678,1.195c-0.226,0.147-0.481,0.254-0.771,0.254  C83.719,12.267,83.251,11.944,83.008,11.488"/>
<path d="M93.031,55.865H58.267l-0.977-8.252c3.129,3.553,7.239,4.247,9.964,4.247c1.251,0,2.405-0.138,3.402-0.318  c-0.143,0.385-0.118,0.814,0.09,1.176c0.25,0.425,0.707,0.688,1.2,0.688h7.966h0.378h7.964c0.493,0,0.95-0.263,1.199-0.688  c0.247-0.428,0.251-0.955,0.006-1.384l-4.72-8.296v-3.694h1.449c0.766,0,1.387-0.62,1.387-1.387c0-0.766-0.621-1.386-1.387-1.386  H73.782c-0.765,0-1.387,0.62-1.387,1.386c0,0.767,0.622,1.387,1.387,1.387h1.68v1.708c-0.017,0.007-0.032,0.004-0.049,0.011  c-0.75,0.301-2.738,1-4.962,1c-3.797,0-6.199-1.984-7.345-6.064c-1.933-6.882-9.733-9.665-16.389-9.974  c-0.932-0.043-2.238,0.042-3.646,0.137c-1.326,0.089-2.83,0.19-4.203,0.19c-2.814,0-3.784-0.441-4.109-0.707  c-4.35-3.52-9.278-7.508-10.282-18.23c-0.049-0.508-0.372-0.949-0.841-1.147c-0.284-0.118-0.595-0.127-0.886-0.053  c-0.761-6.642-8.304-7.819-7.67-0.877c0.505,5.531,0.284,6.02,0.42,6.541l-0.481,0.387c-0.375,0.3-0.564,0.773-0.508,1.25  c0.068,0.545,1.767,13.493,12.701,24.425c0.956,0.956,2.087,3.207,2.056,8.504c-0.012,2.052-0.18,5.79-0.318,9.423H4.16  c-2.299,0-4.16,1.862-4.16,4.16c0,2.298,1.861,4.16,4.16,4.16h4.751V100h8.32V64.186h11.413c-0.438,9.607-0.948,19.061-0.956,19.224  c-0.021,0.381,0.116,0.752,0.378,1.028c0.261,0.276,0.627,0.434,1.006,0.434h4.886c0.027,7.951,0.276,8.237-1.471,9.312  c-1.93,1.188-4.098,1.065-4.939,2.241c-0.661,0.924-0.217,3.201,2.984,3.418c3.201,0.218,8.621,0.175,9.942-2.059  c1.232-2.085,1.191-9.431,1.1-12.913h4.457c-0.094,3.482-0.134,10.828,1.1,12.913c1.321,2.233,6.739,2.276,9.939,2.059  c3.203-0.217,3.646-2.494,2.986-3.418c-0.844-1.176-3.012-1.054-4.941-2.241c-1.746-1.075-1.494-1.361-1.47-9.312h6.367  c0.396,0,0.772-0.17,1.035-0.464c0.263-0.295,0.388-0.688,0.343-1.082l-2.198-19.14h22.102V100h8.32V64.186h3.417  c2.295,0,4.16-1.862,4.16-4.16C97.191,57.727,95.326,55.865,93.031,55.865 M78.235,43.404v-4.062h3.73v4.062  c0,0.077,0.017,0.151,0.028,0.228h-3.789C78.218,43.555,78.235,43.481,78.235,43.404 M46.588,28.792  c1.966,0.091,11.868,0.904,13.847,7.955c1.464,5.215,5.021,8.087,10.017,8.087c1.478,0,2.858-0.25,3.956-0.535  c-0.481,1.124-1.204,2.604-1.921,3.942c-0.87,0.282-2.896,0.845-5.232,0.845c-5.8,0-9.48-3.323-10.937-9.876  c-0.161-0.721-0.866-1.185-1.583-1.067c-0.729,0.122-1.233,0.793-1.148,1.526l1.885,16.196h-10.42v-27.05  C45.644,28.785,46.173,28.77,46.588,28.792 M29.174,35.978c-8.794-8.794-11.255-19.223-11.785-22.062l4.645-3.738  c1.62,10.046,6.777,14.218,10.982,17.62c1.132,0.917,2.937,1.325,5.854,1.325c1.132,0,2.296-0.065,3.408-0.136v26.878H31.781  c0.138-3.624,0.249-7.351,0.261-9.406C32.073,41.438,31.106,37.911,29.174,35.978 M30.536,82.098  c0.161-3.054,0.545-10.442,0.885-17.912h10.856v17.912H30.536z M45.051,82.098V64.186H56.4l2.057,17.912H45.051z"/>
</svg>